<svg width="97" height="30" viewBox="0 0 97 30" fill="none" xmlns="http://www.w3.org/2000/svg">
<path d="M65.5866 9.56728C65.1532 5.54333 62.6438 2.14533 59.0165 0.714596C55.3893 -0.71614 51.2602 0.0439387 48.3401 2.61479C46.5835 1.07228 44.3023 0.155715 41.9297 0.0439386C39.101 -0.0901929 36.4319 0.871082 34.4015 2.77128C32.5081 4.53734 31.3446 6.97407 31.1165 9.61199C31.0024 10.9309 31.1393 12.2499 31.5727 13.6583L13.87 13.6136C13.3909 13.6136 13.0031 13.8371 12.775 14.2172C12.5241 14.6419 12.5241 15.1784 12.775 15.6032C13.0031 15.9832 13.3909 16.2068 13.87 16.2068L33.4434 16.2515C33.8996 16.2515 34.2646 16.0503 34.4928 15.715C34.7437 15.3349 34.7893 14.7984 34.584 14.3513C33.0556 10.8862 33.6259 7.21997 36.0669 4.80561C37.5725 3.33016 39.5572 2.57008 41.6332 2.63715C43.8232 2.70421 45.922 3.7102 47.382 5.36449C47.6101 5.61039 47.9523 5.76688 48.3401 5.76688C48.728 5.76688 49.0701 5.63275 49.2983 5.36449C51.5567 2.81599 54.9558 1.92178 58.0128 3.08425C60.7047 4.11259 62.6437 6.68345 62.9631 9.63434C63.0544 10.4838 63.83 10.9086 64.5372 10.8415C65.2216 10.7521 65.655 10.2379 65.5866 9.56728Z" fill="#2A2A2A"/>
<path d="M9.39871 26.1549H6.25055C5.86273 26.1549 5.56616 25.8419 5.56616 25.4843V4.20203C5.56616 3.82199 5.88554 3.53137 6.25055 3.53137H9.42152C9.80934 3.53137 10.1059 3.84435 10.1059 4.20203V25.4843C10.0831 25.8419 9.78653 26.1549 9.39871 26.1549Z" fill="#2A2A2A"/>
<path d="M3.87805 23.4945H0.684262C0.319257 23.4945 -0.00012207 23.2039 -0.00012207 22.8239V6.79517C-0.00012207 6.43749 0.296444 6.12451 0.684262 6.12451H3.87805C4.24306 6.12451 4.56244 6.41513 4.56244 6.79517V22.8239C4.56244 23.2039 4.26587 23.4945 3.87805 23.4945Z" fill="#2A2A2A"/>
<path d="M14.9197 28.4575H11.7715C11.3837 28.4575 11.0643 28.1445 11.0643 27.7645V1.8771C11.0643 1.49706 11.3837 1.18408 11.7715 1.18408H14.9197C15.3075 1.18408 15.6269 1.49706 15.6269 1.8771V27.7868C15.6269 28.1669 15.3075 28.4575 14.9197 28.4575Z" fill="#2A2A2A"/>
<path d="M82.97 14.2172C82.7419 13.8372 82.354 13.6136 81.875 13.6136L63.3282 13.6584C62.9175 13.6584 62.37 13.8819 62.1647 14.329C60.0659 18.8895 55.8227 22.3099 52.7886 24.5007C51.4427 25.4619 50.0967 26.3562 48.7508 27.1609L48.6139 27.228C48.4086 27.3398 48.4086 27.3398 48.2261 27.2727C47.7014 27.0715 47.1767 26.7138 46.6748 26.3785C46.4695 26.2444 46.2642 26.1103 46.0817 25.9761C44.7129 25.1043 43.5266 24.2771 42.4316 23.45C40.2644 21.7733 38.485 20.0967 36.9794 18.2635C36.5459 17.727 35.8616 17.6599 35.314 18.0847C34.7665 18.5095 34.5156 19.359 35.0631 20.0296C36.5231 21.7957 38.2569 23.4723 40.3785 25.1266C41.6104 26.0879 42.9107 27.0268 44.2567 27.8987C44.941 28.3458 45.6711 28.7929 46.4239 29.24L46.5836 29.3294C47.1083 29.6424 47.7014 30.0001 48.4086 30.0001C48.5455 30.0001 48.7052 29.9777 48.8648 29.9554C49.4352 29.8212 49.9827 29.4635 50.4846 29.1506C50.6214 29.0611 50.7355 28.9717 50.8724 28.9047C51.6708 28.4128 52.4693 27.8763 53.2677 27.3398C55.5034 25.7973 57.3968 24.2771 59.085 22.6899C61.3891 20.4991 63.0544 18.3753 64.1722 16.2516L81.875 16.2069C82.354 16.2069 82.7419 15.9833 82.97 15.6033C83.2209 15.1785 83.2209 14.642 82.97 14.2172Z" fill="#FBF138"/>
<path d="M87.601 26.1549H90.772C91.1598 26.1549 91.4564 25.8419 91.4564 25.4843V4.20203C91.4564 3.82199 91.137 3.53137 90.772 3.53137H87.601C87.2132 3.53137 86.9166 3.84435 86.9166 4.20203V25.4843C86.9166 25.8419 87.2132 26.1549 87.601 26.1549Z" fill="#FBF138"/>
<path d="M93.1218 23.4947H96.3155C96.6805 23.4947 96.9999 23.204 96.9999 22.824V6.79529C96.9999 6.43761 96.7034 6.12463 96.3155 6.12463H93.1218C92.7568 6.12463 92.4374 6.41525 92.4374 6.79529V22.824C92.4374 23.204 92.7339 23.4947 93.1218 23.4947Z" fill="#FBF138"/>
<path d="M82.0803 28.4575H85.2284C85.6163 28.4575 85.9356 28.1445 85.9356 27.7645V1.8771C85.9356 1.49706 85.6163 1.18408 85.2284 1.18408H82.0803C81.6925 1.18408 81.3731 1.49706 81.3731 1.8771V27.7868C81.3731 28.1669 81.6925 28.4575 82.0803 28.4575Z" fill="#FBF138"/>
</svg>
